<?xml version="1.0" encoding="UTF-8"?>
<svg width="512px" height="356px" viewBox="0 0 512 356" version="1.1" xmlns="http://www.w3.org/2000/svg" xmlns:xlink="http://www.w3.org/1999/xlink">
    <!-- Generator: Sketch 55 (78076) - https://sketchapp.com -->
    <title>hamburger</title>
    <desc>Created with Sketch.</desc>
    <g id="Website" stroke="none" stroke-width="1" fill="none" fill-rule="evenodd">
        <g id="hamburger" fill="#4A5568" fill-rule="nonzero">
            <path d="M491.318,157.318 L20.682,157.318 C9.26,157.318 0,166.577 0,178 C0,189.423 9.26,198.682 20.682,198.682 L491.318,198.682 C502.741,198.682 512,189.423 512,178 C512,166.578 502.741,157.318 491.318,157.318 Z M491.318,0.439 L20.682,0.439 C9.26,0.439 0,9.699 0,21.121 C0,32.543 9.26,41.803 20.682,41.803 L491.318,41.803 C502.741,41.803 512,32.543 512,21.121 C512,9.699 502.741,0.439 491.318,0.439 Z M491.318,314.197 L20.682,314.197 C9.26,314.197 0,323.456 0,334.879 C0,346.302 9.26,355.561 20.682,355.561 L491.318,355.561 C502.741,355.561 512,346.302 512,334.879 C512,323.456 502.741,314.197 491.318,314.197 Z" id="Shape"></path>
        </g>
    </g>
</svg>