<?xml version="1.0" standalone="no"?>
<!DOCTYPE svg PUBLIC "-//W3C//DTD SVG 20010904//EN"
 "http://www.w3.org/TR/2001/REC-SVG-20010904/DTD/svg10.dtd">
<svg version="1.0" xmlns="http://www.w3.org/2000/svg"
 width="700.000000pt" height="700.000000pt" viewBox="0 0 700.000000 700.000000"
 preserveAspectRatio="xMidYMid meet">
<metadata>
Created by potrace 1.11, written by Peter Selinger 2001-2013
</metadata>
<g transform="translate(0.000000,700.000000) scale(0.100000,-0.100000)"
fill="#000000" stroke="none">
<path d="M3348 5996 c-1 -2 -35 -6 -73 -10 -39 -4 -84 -9 -100 -11 -17 -3 -43
-7 -60 -10 -16 -2 -47 -7 -69 -11 -278 -43 -709 -205 -924 -349 -30 -19 -56
-35 -59 -35 -3 0 -35 -21 -72 -47 -608 -428 -987 -1043 -1075 -1743 -14 -113
-15 -503 -2 -560 3 -14 9 -45 12 -70 3 -25 17 -97 31 -160 83 -381 288 -786
544 -1075 94 -106 245 -251 329 -315 25 -19 47 -37 50 -40 8 -8 83 -64 101
-75 10 -5 58 -36 108 -68 116 -73 274 -156 388 -203 152 -63 407 -141 523
-160 14 -2 34 -6 46 -9 11 -2 45 -7 75 -11 30 -3 57 -8 60 -10 42 -24 656 -24
731 0 7 3 37 7 66 11 30 3 106 17 170 31 65 14 124 27 132 29 33 7 262 86 321
110 180 75 445 221 549 302 268 209 416 354 566 555 145 194 253 393 338 618
56 150 96 316 131 545 11 70 13 437 4 510 -5 39 -11 84 -13 100 -37 308 -185
695 -374 980 -200 300 -457 556 -742 739 -25 16 -56 37 -70 46 -52 35 -259
140 -360 183 -176 74 -445 154 -585 172 -27 4 -52 9 -55 10 -3 2 -34 6 -69 10
-34 4 -72 9 -84 12 -24 5 -483 14 -489 9z"/>
</g>
</svg>
