<?xml version="1.0" standalone="no"?>
<!DOCTYPE svg PUBLIC "-//W3C//DTD SVG 20010904//EN"
 "http://www.w3.org/TR/2001/REC-SVG-20010904/DTD/svg10.dtd">
<svg version="1.0" xmlns="http://www.w3.org/2000/svg"
 width="512.000000pt" height="512.000000pt" viewBox="0 0 512.000000 512.000000"
 preserveAspectRatio="xMidYMid meet">
<metadata>
Created by potrace 1.11, written by Peter Selinger 2001-2013
</metadata>
<g transform="translate(0.000000,512.000000) scale(0.100000,-0.100000)"
fill="#000000" stroke="none">
<path d="M0 2560 l0 -2560 2560 0 2560 0 0 2560 0 2560 -2560 0 -2560 0 0
-2560z m2945 1190 c84 -17 249 -64 375 -106 228 -77 265 -83 336 -60 13 5 27
1 41 -11 l21 -18 -149 -270 c-83 -148 -154 -274 -159 -279 -16 -16 -42 11 -65
70 -30 73 -79 118 -195 178 -218 113 -508 168 -758 145 -190 -17 -329 -62
-405 -129 -50 -44 -67 -79 -67 -139 0 -179 158 -249 630 -281 485 -32 664 -62
836 -140 162 -73 280 -201 330 -357 24 -75 29 -273 10 -357 -28 -118 -70 -192
-160 -281 -95 -95 -167 -144 -288 -197 -192 -85 -458 -128 -790 -128 -358 0
-556 37 -833 155 -135 58 -163 63 -194 37 -23 -18 -26 -18 -53 -3 -15 9 -28
19 -28 23 0 9 231 521 241 531 12 15 49 -12 49 -36 0 -68 106 -150 278 -218
218 -85 453 -127 650 -115 268 16 460 76 563 176 94 91 89 221 -11 295 -81 60
-234 88 -610 110 -593 36 -806 93 -971 259 -117 118 -161 235 -162 431 -1 106
2 129 27 200 35 103 82 179 155 253 71 72 128 112 240 167 101 50 216 88 332
109 130 24 139 24 394 21 225 -3 249 -5 390 -35z"/>
</g>
</svg>
